<svg width="903" height="125" viewBox="0 0 903 125" fill="none" xmlns="http://www.w3.org/2000/svg">
<rect width="903" height="125" fill="#FEFFFE" fill-opacity="0.7"/>
<path d="M93.168 65.952V55.2L30 28.896V38.208L85.488 60.576L30 82.944V92.256L93.168 65.952ZM135.389 65.952V55.2L72.2212 28.896V38.208L127.709 60.576L72.2212 82.944V92.256L135.389 65.952Z" fill="#7186D1"/>
<path d="M840.69 96.288H822V88.896H840.69H853.488H872.178V96.288H853.488H840.69Z" fill="#7186D1"/>
<path d="M247.119 36.728C230.991 36.728 218.895 47.384 218.895 62.84C218.895 78.2 230.991 88.952 247.119 88.952C263.055 88.952 275.247 78.2 275.247 62.84C275.247 47.384 263.055 36.728 247.119 36.728ZM247.119 81.464C235.791 81.464 227.151 74.168 227.151 62.84C227.151 51.416 235.791 44.216 247.119 44.216C258.255 44.216 266.895 51.416 266.895 62.84C266.895 74.168 258.255 81.464 247.119 81.464ZM333.563 37.688H324.923V63.608C324.923 74.264 317.819 80.984 307.835 80.984C297.467 80.984 292.667 74.648 292.667 65.048V37.688H284.027V66.008C284.027 79.64 291.803 88.952 305.627 88.952C315.227 88.952 321.371 84.44 324.923 79.256V87.896H333.563V37.688ZM372.983 76.088C377.879 84.536 388.631 88.952 401.303 88.952C413.783 88.952 425.207 83.384 425.207 72.824C425.207 61.016 413.687 59.864 400.247 58.328C389.495 57.08 384.407 56.504 384.407 51.512C384.407 46.904 389.591 43.928 398.519 43.928C407.351 43.928 414.359 47.096 418.103 53.048L423.959 47.96C419.927 41.528 410.903 36.728 398.807 36.728C385.367 36.728 376.055 43.064 376.055 52.28C376.055 62.552 385.943 64.568 398.423 66.008C410.711 67.352 416.663 67.544 416.663 73.496C416.663 79.16 409.943 81.656 401.207 81.656C391.511 81.656 383.831 78.296 379.319 70.808L372.983 76.088ZM452.892 88.952C462.396 88.952 470.94 85.592 475.452 79.832L475.548 80.312C476.412 86.168 481.596 89.72 491.196 87.896V80.984C485.628 82.232 483.132 81.176 483.132 77.432V54.776C483.132 43.16 474.492 36.728 459.996 36.728C448.284 36.728 437.82 42.2 434.652 50.648L441.852 53.912C443.964 48.152 451.26 44.12 459.804 44.12C469.596 44.12 474.78 48.344 474.78 54.68V55.928L452.604 58.424C440.796 59.768 432.732 64.568 432.732 73.88C432.732 83.768 441.66 88.952 452.892 88.952ZM474.78 67.832C474.78 77.24 463.452 81.848 453.564 81.848C446.076 81.848 441.18 78.968 441.18 73.784C441.18 68.024 446.364 66.104 453.852 65.24L474.78 62.84V67.832ZM627.107 79.064V87.896H635.747V23L627.491 23L627.107 46.52C623.363 41.144 615.971 36.728 605.987 36.728C589.091 36.728 578.531 48.248 578.531 62.84C578.531 77.336 589.091 88.952 605.987 88.952C615.971 88.952 623.363 84.536 627.107 79.064ZM627.491 62.456V63.128C627.491 74.552 617.603 81.56 607.043 81.56C595.811 81.56 586.787 74.456 586.787 62.84C586.787 51.128 595.811 44.024 607.043 44.024C617.603 44.024 627.491 51.128 627.491 62.456ZM665.258 88.952C674.762 88.952 683.306 85.592 687.818 79.832L687.914 80.312C688.778 86.168 693.962 89.72 703.562 87.896V80.984C697.994 82.232 695.498 81.176 695.498 77.432V54.776C695.498 43.16 686.858 36.728 672.362 36.728C660.65 36.728 650.186 42.2 647.018 50.648L654.218 53.912C656.33 48.152 663.626 44.12 672.17 44.12C681.962 44.12 687.146 48.344 687.146 54.68V55.928L664.97 58.424C653.162 59.768 645.098 64.568 645.098 73.88C645.098 83.768 654.026 88.952 665.258 88.952ZM687.146 67.832C687.146 77.24 675.818 81.848 665.93 81.848C658.442 81.848 653.546 78.968 653.546 73.784C653.546 68.024 658.73 66.104 666.218 65.24L687.146 62.84V67.832ZM715.915 72.152C715.915 84.248 724.363 88.472 734.923 88.472C740.011 88.472 746.66 86.932 750.5 85.396L747.979 78.392C744.331 79.736 740.491 80.696 736.267 80.696C728.683 80.696 724.459 78.488 724.459 71.384V45.08H747.691V37.688H724.459V23H715.915V37.688H703.723V45.08H715.915V72.152ZM775.167 88.952C784.671 88.952 793.215 85.592 797.727 79.832L797.823 80.312C798.687 86.168 803.871 89.72 813.471 87.896V80.984C807.903 82.232 805.407 81.176 805.407 77.432V54.776C805.407 43.16 796.767 36.728 782.271 36.728C770.559 36.728 760.095 42.2 756.927 50.648L764.127 53.912C766.239 48.152 773.535 44.12 782.079 44.12C791.871 44.12 797.055 48.344 797.055 54.68V55.928L774.879 58.424C763.071 59.768 755.007 64.568 755.007 73.88C755.007 83.768 763.935 88.952 775.167 88.952ZM797.055 67.832C797.055 77.24 785.727 81.848 775.839 81.848C768.351 81.848 763.455 78.968 763.455 73.784C763.455 68.024 768.639 66.104 776.127 65.24L797.055 62.84V67.832Z" fill="#10284D"/>
<path d="M219.192 37.896L190.872 93.672C186.072 103.08 180.408 106.248 171.96 106.248C168.792 106.248 166.18 105.564 164.26 104.604V97.104C166.66 98.16 168.984 98.76 171.576 98.76C176.376 98.76 180.6 97.032 183.288 90.792L184.824 87.432L159 37.896H168.6L189.336 78.696L209.784 37.896H219.192Z" fill="#10284D"/>
<path d="M551.192 37.896L522.872 93.672C518.072 103.08 512.408 106.248 503.96 106.248C500.792 106.248 498.18 105.564 496.26 104.604V97.104C498.66 98.16 500.984 98.76 503.576 98.76C508.376 98.76 512.6 97.032 515.288 90.792L516.824 87.432L491 37.896H500.6L521.336 78.696L541.784 37.896H551.192Z" fill="#10284D"/>
</svg>
